<svg width="39" height="34" viewBox="0 0 39 34" fill="none" xmlns="http://www.w3.org/2000/svg">
<path d="M26 0.89998C24.375 0.89998 23.075 2.16665 23.075 3.74998C23.075 5.33331 24.375 6.59998 26 6.59998C27.625 6.59998 28.925 5.33331 28.925 3.74998C28.925 2.16665 27.625 0.89998 26 0.89998ZM20.15 5.49165C19.3862 5.49165 18.6875 5.79248 18.2 6.28331L12.1875 12.1258C11.6838 12.6166 11.375 13.25 11.375 14.0416C11.375 15.0391 11.9113 15.8783 12.7562 16.3691L18.2 19.5833V27.5H21.125V17.2083L17.4688 14.5958L21.2388 10.875L24.05 14.8333H30.875V11.9833H25.675L22.5225 6.80581C22.0512 6.01415 21.125 5.49165 20.15 5.49165ZM16.25 3.74998H4.875C3.98125 3.74998 3.25 3.03748 3.25 2.16665C3.25 1.29581 3.98125 0.583313 4.875 0.583313H20.7838C20.4425 1.12165 20.1663 1.70748 20.02 2.34081C18.6225 2.37248 17.3062 2.87915 16.25 3.74998ZM8.125 18C3.64 18 0 21.5466 0 25.9166C0 30.2866 3.64 33.8333 8.125 33.8333C12.61 33.8333 16.25 30.2866 16.25 25.9166C16.25 21.5466 12.61 18 8.125 18ZM8.125 31.4583C4.98875 31.4583 2.4375 28.9725 2.4375 25.9166C2.4375 22.8608 4.98875 20.375 8.125 20.375C11.2612 20.375 13.8125 22.8608 13.8125 25.9166C13.8125 28.9725 11.2612 31.4583 8.125 31.4583ZM30.875 18C26.39 18 22.75 21.5466 22.75 25.9166C22.75 30.2866 26.39 33.8333 30.875 33.8333C35.36 33.8333 39 30.2866 39 25.9166C39 21.5466 35.36 18 30.875 18ZM30.875 31.4583C27.7388 31.4583 25.1875 28.9725 25.1875 25.9166C25.1875 22.8608 27.7388 20.375 30.875 20.375C34.0112 20.375 36.5625 22.8608 36.5625 25.9166C36.5625 28.9725 34.0112 31.4583 30.875 31.4583ZM8.645 16.4166H1.625C0.728 16.4166 0 15.7041 0 14.8333C0 13.9625 0.728 13.25 1.625 13.25H8.20625C8.17375 13.5033 8.125 13.7725 8.125 14.0416C8.125 14.8808 8.32 15.6883 8.645 16.4166ZM9.75 10.0833H3.25C2.35625 10.0833 1.625 9.37081 1.625 8.49998C1.625 7.62915 2.35625 6.91665 3.25 6.91665H12.9513L9.89625 9.87748C9.83125 9.94081 9.75 10.02 9.75 10.0833Z" fill="#30324C"/>
</svg>
